<svg width="24" height="24" viewBox="0 0 24 24" fill="none" xmlns="http://www.w3.org/2000/svg">
<path fill-rule="evenodd" clip-rule="evenodd" d="M3 4.30917C3 3.96196 3.13546 3.62896 3.37658 3.38345C3.61769 3.13793 3.94472 3 4.28572 3H19.7143C20.0553 3 20.3823 3.13793 20.6234 3.38345C20.8646 3.62896 21 3.96196 21 4.30917C21 4.65638 20.8646 4.98938 20.6234 5.2349C20.3823 5.48041 20.0553 5.61834 19.7143 5.61834H4.28572C3.94472 5.61834 3.61769 5.48041 3.37658 5.2349C3.13546 4.98938 3 4.65638 3 4.30917Z" fill="white"/>
<path fill-rule="evenodd" clip-rule="evenodd" d="M3 10.8551C3 10.5079 3.13546 10.1749 3.37658 9.92935C3.61769 9.68383 3.94472 9.5459 4.28572 9.5459H19.7143C20.0553 9.5459 20.3823 9.68383 20.6234 9.92935C20.8646 10.1749 21 10.5079 21 10.8551C21 11.2023 20.8646 11.5352 20.6234 11.7808C20.3823 12.0263 20.0553 12.1642 19.7143 12.1642H4.28572C3.94472 12.1642 3.61769 12.0263 3.37658 11.7808C3.13546 11.5352 3 11.2023 3 10.8551Z" fill="white"/>
<path fill-rule="evenodd" clip-rule="evenodd" d="M3 17.4009C3 17.0537 3.13546 16.7208 3.37658 16.4752C3.61769 16.2297 3.94472 16.0918 4.28572 16.0918H12C12.341 16.0918 12.668 16.2297 12.9092 16.4752C13.1503 16.7208 13.2857 17.0537 13.2857 17.4009C13.2857 17.7481 13.1503 18.0811 12.9092 18.3266C12.668 18.5722 12.341 18.7101 12 18.7101H4.28572C3.94472 18.7101 3.61769 18.5722 3.37658 18.3266C3.13546 18.0811 3 17.7481 3 17.4009Z" fill="white"/>
</svg>
