<svg width="25" height="24" viewBox="0 0 25 24" fill="none" xmlns="http://www.w3.org/2000/svg">
<path d="M20.5 5C20.5 4.73478 20.3946 4.48043 20.2071 4.29289C20.0196 4.10536 19.7652 4 19.5 4H14.5C14.2348 4 13.9804 4.10536 13.7929 4.29289C13.6054 4.48043 13.5 4.73478 13.5 5C13.5 5.26522 13.6054 5.51957 13.7929 5.70711C13.9804 5.89464 14.2348 6 14.5 6H17.07L13.79 9.29C13.6963 9.38296 13.6219 9.49356 13.5711 9.61542C13.5203 9.73728 13.4942 9.86799 13.4942 10C13.4942 10.132 13.5203 10.2627 13.5711 10.3846C13.6219 10.5064 13.6963 10.617 13.79 10.71C13.883 10.8037 13.9936 10.8781 14.1154 10.9289C14.2373 10.9797 14.368 11.0058 14.5 11.0058C14.632 11.0058 14.7627 10.9797 14.8846 10.9289C15.0064 10.8781 15.117 10.8037 15.21 10.71L18.5 7.42V10C18.5 10.2652 18.6054 10.5196 18.7929 10.7071C18.9804 10.8946 19.2348 11 19.5 11C19.7652 11 20.0196 10.8946 20.2071 10.7071C20.3946 10.5196 20.5 10.2652 20.5 10V5ZM11.21 13.29C11.117 13.1963 11.0064 13.1219 10.8846 13.0711C10.7627 13.0203 10.632 12.9942 10.5 12.9942C10.368 12.9942 10.2373 13.0203 10.1154 13.0711C9.99356 13.1219 9.88296 13.1963 9.79 13.29L6.5 16.57V14C6.5 13.7348 6.39464 13.4804 6.20711 13.2929C6.01957 13.1054 5.76522 13 5.5 13C5.23478 13 4.98043 13.1054 4.79289 13.2929C4.60536 13.4804 4.5 13.7348 4.5 14V19C4.5 19.2652 4.60536 19.5196 4.79289 19.7071C4.98043 19.8946 5.23478 20 5.5 20H10.5C10.7652 20 11.0196 19.8946 11.2071 19.7071C11.3946 19.5196 11.5 19.2652 11.5 19C11.5 18.7348 11.3946 18.4804 11.2071 18.2929C11.0196 18.1054 10.7652 18 10.5 18H7.92L11.21 14.71C11.3037 14.617 11.3781 14.5064 11.4289 14.3846C11.4797 14.2627 11.5058 14.132 11.5058 14C11.5058 13.868 11.4797 13.7373 11.4289 13.6154C11.3781 13.4936 11.3037 13.383 11.21 13.29Z" fill="white"/>
</svg>
