<svg width="24" height="24" viewBox="0 0 24 24" fill="none" xmlns="http://www.w3.org/2000/svg">
<path d="M8 8.22562H9V3.2522H8C6.89437 3.2522 6 4.3721 6 5.7213C6 7.0705 6.89375 8.22562 8 8.22562ZM2 18.2429C2 19.6269 2.89437 20.7476 4 20.7476L5 20.7472V15.7738L4 15.7738C2.89437 15.7386 2 16.8929 2 18.2429ZM12.5469 13.2343C11.4531 13.2343 10.1641 13.7477 9.27187 14.4512C8.5 15.1634 7.88437 15.7386 6 15.7386V20.7472L7.79688 21.3725C8.61719 21.6562 9.45313 21.8863 10.3088 21.9599C11.3284 22.0528 12.3597 21.9889 13.3556 21.7199C16.7781 20.8294 18 18.7946 18 16.9907C18 14.4864 15.3719 13.2343 12.5469 13.2343ZM17.3562 2.28381C16.36 2.01479 15.3287 1.94631 14.3094 2.03924C13.4531 2.11261 12.6187 2.3425 11.7969 2.62611L10 3.2522V8.22562C11.8828 8.22562 12.5 8.83683 13.275 9.44257C14.1656 10.1809 15.4547 10.6595 16.55 10.6595C19.3719 10.7299 22 9.47778 22 6.97346C22 5.23804 20.7781 3.20328 17.3562 2.28381Z" fill="#007AD9"/>
</svg>
