<svg width="30" height="30" viewBox="0 0 30 30" fill="none" xmlns="http://www.w3.org/2000/svg">
<path d="M-0.000488281 15C-0.000488281 6.71573 6.71524 0 14.9995 0C23.2838 0 29.9995 6.71573 29.9995 15C29.9995 23.2843 23.2838 30 14.9995 30C6.71524 30 -0.000488281 23.2843 -0.000488281 15Z" fill="#1F48AB"/>
<path d="M21.2889 23.9999C20.8964 23.9999 20.5782 23.685 20.5782 23.2966C20.5782 20.5432 18.3147 18.3031 15.5325 18.3031H14.4665C11.6843 18.3031 9.42083 20.5432 9.42083 23.2966C9.42083 23.685 9.10267 23.9999 8.71017 23.9999C8.31767 23.9999 7.99951 23.685 7.99951 23.2966C7.99951 19.7676 10.9006 16.8965 14.4665 16.8965H15.5325C19.0984 16.8965 21.9995 19.7676 21.9995 23.2966C21.9995 23.685 21.6813 23.9999 21.2889 23.9999Z" fill="white"/>
<path d="M14.9283 15.4947C12.2833 15.4947 10.1313 13.365 10.1313 10.7473C10.1313 8.12965 12.2833 6 14.9283 6C17.5733 6 19.7253 8.12965 19.7253 10.7473C19.7253 13.365 17.5733 15.4947 14.9283 15.4947ZM14.9283 7.40662C13.067 7.40662 11.5527 8.90526 11.5527 10.7473C11.5527 12.5894 13.067 14.088 14.9283 14.088C16.7896 14.088 18.3039 12.5894 18.3039 10.7473C18.3039 8.90526 16.7896 7.40662 14.9283 7.40662Z" fill="white"/>
</svg>
